<svg width="47" height="34" viewBox="0 0 47 34" fill="none" xmlns="http://www.w3.org/2000/svg">
<path fill-rule="evenodd" clip-rule="evenodd" d="M0 7.86289C0 4.32827 2.86538 1.46289 6.4 1.46289H25.6C29.1346 1.46289 32 4.32827 32 7.86289V27.0629C32 30.5975 29.1346 33.4629 25.6 33.4629H6.4C2.86538 33.4629 0 30.5975 0 27.0629V7.86289ZM6.4 4.66289C4.63269 4.66289 3.2 6.09558 3.2 7.86289V27.0629C3.2 28.8303 4.63269 30.2629 6.4 30.2629H16V19.0629H14.4C13.5163 19.0629 12.8 18.3466 12.8 17.4629C12.8 16.5792 13.5163 15.8629 14.4 15.8629H16V13.4629C16 10.3701 18.5072 7.86289 21.6 7.86289H22.56C23.4437 7.86289 24.16 8.57924 24.16 9.46289C24.16 10.3465 23.4437 11.0629 22.56 11.0629H21.6C20.2746 11.0629 19.2 12.1374 19.2 13.4629V15.8629H22.56C23.4437 15.8629 24.16 16.5792 24.16 17.4629C24.16 18.3466 23.4437 19.0629 22.56 19.0629H19.2V30.2629H25.6C27.3674 30.2629 28.8 28.8303 28.8 27.0629V7.86289C28.8 6.09558 27.3674 4.66289 25.6 4.66289H6.4Z" fill="white"/>
<path d="M36.7422 25.45H38.5664C38.9414 25.45 39.2708 25.5138 39.5547 25.6414C39.8385 25.769 40.0599 25.9552 40.2188 26.2C40.3802 26.4447 40.4609 26.7455 40.4609 27.1023C40.4609 27.3757 40.4023 27.6231 40.2852 27.8445C40.168 28.0658 40.0091 28.2494 39.8086 28.3953C39.6081 28.5385 39.3815 28.6322 39.1289 28.6765L38.9922 28.7273H36.8945L36.8867 28.4382H38.7266C39.0417 28.4382 39.3034 28.3744 39.5117 28.2468C39.7227 28.1192 39.8802 27.9539 39.9844 27.7507C40.0911 27.545 40.1445 27.3289 40.1445 27.1023C40.1445 26.8184 40.0807 26.5763 39.9531 26.3757C39.8281 26.1726 39.6471 26.0164 39.4102 25.907C39.1758 25.795 38.8945 25.739 38.5664 25.739H37.0586V31.1375H36.7422V25.45ZM40.3633 31.1375L38.8398 28.614L39.1914 28.6101L40.6992 31.0828V31.1375H40.3633ZM45.4844 25.45H45.8008V29.3054C45.8008 29.7299 45.7135 30.0841 45.5391 30.3679C45.3672 30.6518 45.1315 30.864 44.832 31.0046C44.5352 31.1453 44.2031 31.2156 43.8359 31.2156C43.4635 31.2156 43.1289 31.1453 42.832 31.0046C42.5352 30.864 42.2995 30.6518 42.125 30.3679C41.9531 30.0841 41.8672 29.7299 41.8672 29.3054V25.45H42.1836V29.3054C42.1836 29.657 42.2552 29.9539 42.3984 30.196C42.5417 30.4356 42.7383 30.6179 42.9883 30.7429C43.2383 30.8653 43.5208 30.9265 43.8359 30.9265C44.151 30.9265 44.4323 30.8653 44.6797 30.7429C44.9297 30.6179 45.1263 30.4356 45.2695 30.196C45.4128 29.9539 45.4844 29.657 45.4844 29.3054V25.45Z" fill="white"/>
<path d="M36.8818 8.16016L38.2559 6.27344L36.1914 5.6582L36.5127 4.63281L38.5771 5.3916L38.5156 3.04004H39.5547L39.4863 5.43262L41.5234 4.67383L41.8379 5.71973L39.7393 6.3418L41.0859 8.19434L40.2383 8.83008L38.9736 6.86133L37.7363 8.78223L36.8818 8.16016Z" fill="white"/>
</svg>