<svg width="47" height="34" viewBox="0 0 47 34" fill="none" xmlns="http://www.w3.org/2000/svg">
<g clip-path="url(#clip0_46_832)">
<path fill-rule="evenodd" clip-rule="evenodd" d="M-0.482422 7.77506C-0.482422 4.28621 2.44337 1.45795 6.05252 1.45795H25.6574C29.2664 1.45795 32.1923 4.28621 32.1923 7.77506V26.7264C32.1923 30.2152 29.2664 33.0435 25.6574 33.0435H6.05252C2.44337 33.0435 -0.482422 30.2152 -0.482422 26.7264V7.77506ZM6.05252 4.6165C4.24795 4.6165 2.78505 6.03064 2.78505 7.77506V26.7264C2.78505 28.4709 4.24795 29.885 6.05252 29.885H15.8549V18.83H14.2212C13.3189 18.83 12.5875 18.123 12.5875 17.2507C12.5875 16.3785 13.3189 15.6715 14.2212 15.6715H15.8549V13.3025C15.8549 10.2498 18.415 7.77506 21.573 7.77506H22.5533C23.4556 7.77506 24.187 8.48213 24.187 9.35434C24.187 10.2265 23.4556 10.9336 22.5533 10.9336H21.573C20.2196 10.9336 19.1224 11.9942 19.1224 13.3025V15.6715H22.5533C23.4556 15.6715 24.187 16.3785 24.187 17.2507C24.187 18.123 23.4556 18.83 22.5533 18.83H19.1224V29.885H25.6574C27.462 29.885 28.9248 28.4709 28.9248 26.7264V7.77506C28.9248 6.03064 27.462 4.6165 25.6574 4.6165H6.05252Z" fill="white"/>
</g>
<path d="M38.4844 25.6921L36.4609 31.1375H36.125L38.2617 25.45H38.5234L38.4844 25.6921ZM40.3984 31.1375L38.3789 25.6921L38.3398 25.45H38.5977L40.7383 31.1375H40.3984ZM39.8984 29.1882V29.4812H36.9805V29.1882H39.8984ZM41.6094 25.45H43.4336C43.8086 25.45 44.138 25.5138 44.4219 25.6414C44.7057 25.769 44.9271 25.9552 45.0859 26.2C45.2474 26.4447 45.3281 26.7455 45.3281 27.1023C45.3281 27.3757 45.2695 27.6231 45.1523 27.8445C45.0352 28.0658 44.8763 28.2494 44.6758 28.3953C44.4753 28.5385 44.2487 28.6322 43.9961 28.6765L43.8594 28.7273H41.7617L41.7539 28.4382H43.5938C43.9089 28.4382 44.1706 28.3744 44.3789 28.2468C44.5898 28.1192 44.7474 27.9539 44.8516 27.7507C44.9583 27.545 45.0117 27.3289 45.0117 27.1023C45.0117 26.8184 44.9479 26.5763 44.8203 26.3757C44.6953 26.1726 44.5143 26.0164 44.2773 25.907C44.043 25.795 43.7617 25.739 43.4336 25.739H41.9258V31.1375H41.6094V25.45ZM45.2305 31.1375L43.707 28.614L44.0586 28.6101L45.5664 31.0828V31.1375H45.2305Z" fill="white"/>
<path d="M36.8818 8.16016L38.2559 6.27344L36.1914 5.6582L36.5127 4.63281L38.5771 5.3916L38.5156 3.04004H39.5547L39.4863 5.43262L41.5234 4.67383L41.8379 5.71973L39.7393 6.3418L41.0859 8.19434L40.2383 8.83008L38.9736 6.86133L37.7363 8.78223L36.8818 8.16016Z" fill="white"/>
<defs>
<clipPath id="clip0_46_832">
<rect width="32" height="32" fill="white" transform="translate(0 1.53711)"/>
</clipPath>
</defs>
</svg>