<svg width="31" height="35" viewBox="0 0 31 35" fill="none" xmlns="http://www.w3.org/2000/svg">
<path d="M28.8693 4.70822C25.5069 0.494991 18.6716 0.927241 12.1974 5.23563L9.11444 0.847797C8.16719 -0.502761 5.65388 -0.20809 3.50063 1.50619C1.34738 3.22035 0.36975 5.7049 1.31681 7.05553L4.89975 12.1648C2.36694 15.5086 0.6855 19.1399 0 22.515C0.0675625 22.5101 0.134813 22.5057 0.202313 22.5013C0.893188 19.2125 2.58175 15.6872 5.12119 12.4805L6.579 14.5593C4.71469 17.1548 3.46256 19.9548 2.909 22.6081C2.20419 25.9863 2.63044 29.126 4.36563 31.3006C7.81394 35.6214 15.0956 34.716 21.2149 29.2495C21.2195 29.2692 22.2947 28.2991 22.7655 27.8265C30.2968 20.2718 33.0294 9.92139 28.8693 4.70822ZM16.7834 14.2766C15.7996 15.1856 13.2154 15.048 12.6826 14.425L7.36819 6.84649C7.38569 6.83224 7.402 6.81733 7.41981 6.80321C8.46194 5.97354 9.57744 5.47536 10.5303 5.34204L16.7834 14.2766ZM13.0618 15.3499C14.6562 16.0206 16.4381 15.324 17.1309 14.7728L17.2201 14.9001L18.0411 20.8267C17.7949 20.8794 17.5454 20.9944 17.3184 21.175C17.0914 21.3557 16.9174 21.5777 16.8003 21.8138L12.0049 19.4987C12.3633 18.903 13.3864 17.1357 13.0618 15.3499ZM14.3018 8.23068C18.6919 5.92346 23.1728 5.9722 25.3598 8.71294C28.165 12.2288 26.1342 18.8406 20.8245 23.49C20.8238 23.4907 20.4807 23.7791 20.3897 23.8679L19.7586 24.4095L18.5466 14.272L14.3018 8.23068ZM4.252 2.5776C5.24656 1.78588 7.1305 1.16791 7.97869 1.78868C7.01175 1.90848 5.86913 2.41125 4.80375 3.25944C3.67425 4.15856 2.86956 5.25614 2.51544 6.25729C2.03019 5.1699 3.19194 3.42159 4.252 2.5776ZM4.36094 8.92757L3.22775 7.31184C3.55231 6.2728 4.37675 5.1127 5.56088 4.16988C6.60813 3.33608 7.7295 2.83664 8.6855 2.70652L9.88206 4.41594C8.90594 4.52555 7.74425 5.03146 6.6625 5.89269C5.51919 6.80281 4.70806 7.9165 4.36094 8.92757ZM5.08288 9.95708C5.36081 9.05702 6.01669 8.06633 6.95644 7.20276L12.2581 14.7628C12.2581 14.7628 13.0672 16.9702 11.5081 19.1192L5.08288 9.95708ZM27.2199 20.7751C25.5559 24.0811 23.3455 26.4014 21.0977 28.4865C15.5322 33.6487 8.38431 34.0546 5.17531 30.0307C3.68969 28.1679 3.23094 25.5796 3.66869 22.7655C4.06044 20.2481 5.17113 17.5502 6.90788 15.0282L10.7611 20.5227L17.1364 23.4469C17.1997 23.4843 17.2666 23.5151 17.3371 23.539L19.7519 24.6465L19.8351 24.7864L21.1374 23.6991L21.1358 23.6977C21.2308 23.6166 21.3256 23.5359 21.4194 23.4518C27.0176 18.4441 29.1721 11.4013 26.2318 7.72185C25.6479 6.99113 24.9048 6.45133 24.0483 6.08934C24.0523 6.08541 24.0559 6.08122 24.0599 6.07709C23.9993 6.05578 23.9366 6.0378 23.8751 6.01809C21.2262 4.99203 17.5386 5.63578 13.9747 7.765L12.6166 5.83209C18.5345 2.3087 24.627 2.17332 27.7081 6.02814C30.4619 9.47482 30.0891 15.2096 27.239 20.7663C27.2326 20.7693 27.2259 20.7723 27.2199 20.7751Z" fill="white"/>
</svg>