<svg width="32" height="27" viewBox="0 0 32 27" fill="none" xmlns="http://www.w3.org/2000/svg">
<path d="M31.6795 5.86276C31.6795 5.7489 31.3589 3.24445 30.3439 2.04913C29.1152 0.626145 27.7797 0.455384 27.0852 0.398419H26.8715C22.5443 0.056898 16.0802 0 15.9734 0C15.92 0 9.40241 0.056898 5.12861 0.512282H4.96834C4.22034 0.56918 2.88481 0.739941 1.70954 2.16292C0.641068 3.35825 0.320534 5.91966 0.320534 6.03352C0.320534 6.03352 0 8.93645 0 11.8394V14.5147C0 17.3607 0.320534 20.2636 0.320534 20.3205C0.320534 20.4344 0.641068 22.9388 1.65607 24.1342C2.77794 25.5002 4.11348 25.671 4.96828 25.7849C5.12854 25.7849 5.23541 25.7849 5.39568 25.8418C7.85308 26.0694 15.6528 26.1833 15.9733 26.1833C16.0267 26.1833 22.5442 26.1833 26.8715 25.671H27.0317C27.7797 25.6141 29.1152 25.4433 30.2905 24.0203C31.3589 22.825 31.6795 20.2636 31.6795 20.1497C31.6795 20.1497 32 17.2468 32 14.3438V11.6686C32 8.82259 31.6795 5.91966 31.6795 5.86276ZM30.9315 14.4577C30.9315 17.3037 30.611 20.1497 30.611 20.1497C30.5041 20.7758 30.1836 22.5972 29.4891 23.3941C28.5809 24.5326 27.5125 24.6464 26.9249 24.7033H26.7646C22.4908 25.0449 16.0267 25.0449 15.9733 25.0449C15.9199 25.0449 7.90655 24.931 5.55594 24.6464C5.39568 24.6464 5.23541 24.5895 5.07514 24.5895C4.32721 24.5326 3.2588 24.3619 2.40401 23.3373C1.76294 22.5974 1.389 20.7759 1.33554 20.1498C1.33554 20.0929 1.015 17.2468 1.015 14.4578V11.7825C1.015 8.93645 1.33554 6.09049 1.33554 6.09049C1.38894 5.46434 1.76294 3.64294 2.40401 2.84603C3.36561 1.70761 4.38061 1.59374 5.02168 1.53685H5.18195C9.45575 1.19532 15.9198 1.13843 15.9732 1.13843C16.0266 1.13843 22.4908 1.19532 26.7645 1.53685H26.9782C27.5659 1.59374 28.6343 1.70761 29.5425 2.84603C30.1835 3.64294 30.5041 5.46434 30.6109 6.09049C30.6643 6.20435 30.9315 9.05032 30.9315 11.7825L30.9315 14.4577Z" fill="white"/>
<path d="M22.6513 13.1487L12.501 6.83051C12.3408 6.71665 12.1271 6.71665 11.9668 6.83051C11.8066 6.94438 11.6997 7.11514 11.6997 7.3428V19.6945C11.6997 19.9222 11.8066 20.0929 11.9668 20.2068C12.0737 20.2637 12.1271 20.2637 12.234 20.2637C12.3408 20.2637 12.3942 20.2637 12.5011 20.2068L22.6514 14.1733C22.8116 14.0594 22.9185 13.8886 22.9185 13.661C22.9185 13.4333 22.8116 13.2625 22.6513 13.1487ZM12.7682 18.7269V8.3104L21.3158 13.6609L12.7682 18.7269Z" fill="white"/>
</svg>